<svg width="129" height="109" viewBox="0 0 129 109" fill="none" xmlns="http://www.w3.org/2000/svg">
<path d="M75.7207 45.8729C79.5164 28.3296 68.3719 11.0308 50.8286 7.23502C33.2852 3.43925 15.9865 14.5838 12.1907 32.1271L75.7207 45.8729ZM63.0548 62.2704L44.8627 89.2018L55.651 96.4892L68.4868 94.3132L63.0548 62.2704ZM121.83 55.8494C125.626 38.3061 114.481 21.0073 96.938 17.2115C79.3947 13.4158 62.0959 24.5603 58.3002 42.1037L121.83 55.8494ZM12.1907 32.1271C8.86286 47.5078 15.8919 59.6049 18.8891 64.2022C22.6479 69.9676 27.2388 74.6525 30.591 77.7825C34.1654 81.1201 37.6585 83.9063 40.1488 85.7961C41.4256 86.765 42.5159 87.5565 43.3229 88.1302C43.728 88.4182 44.0662 88.6545 44.3257 88.834C44.4556 88.9239 44.5662 88.9999 44.6561 89.0613C44.7011 89.0921 44.7409 89.1192 44.7754 89.1426C44.7926 89.1543 44.8085 89.1651 44.8231 89.175C44.8304 89.1799 44.8373 89.1846 44.8439 89.1891C44.8472 89.1913 44.852 89.1945 44.8536 89.1956C44.8582 89.1987 44.8627 89.2018 63.0548 62.2704C81.2468 35.339 81.2512 35.342 81.2555 35.3449C81.2568 35.3458 81.261 35.3486 81.2637 35.3504C81.269 35.354 81.274 35.3574 81.2788 35.3606C81.2883 35.3671 81.2965 35.3727 81.3037 35.3775C81.3179 35.3872 81.3276 35.3938 81.3327 35.3973C81.3431 35.4044 81.3357 35.3994 81.3118 35.3829C81.2639 35.3497 81.1516 35.2715 80.9847 35.1529C80.6479 34.9135 80.1084 34.523 79.4418 34.0171C78.0452 32.9573 76.3964 31.6222 74.9514 30.273C73.2841 28.7163 72.978 28.149 73.3392 28.7031C73.5573 29.0376 74.4924 30.5043 75.2607 32.9862C76.0469 35.5257 76.9593 40.1482 75.7207 45.8729L12.1907 32.1271ZM63.0548 62.2704C68.4868 94.3132 68.4922 94.3123 68.4977 94.3114C68.4996 94.3111 68.5052 94.3101 68.5092 94.3094C68.517 94.3081 68.5253 94.3067 68.534 94.3052C68.5513 94.3022 68.5703 94.299 68.5908 94.2955C68.6319 94.2884 68.6794 94.2801 68.733 94.2707C68.8402 94.252 68.9724 94.2285 69.1278 94.2004C69.4384 94.1441 69.8439 94.0688 70.3318 93.974C71.3039 93.7852 72.6239 93.5153 74.187 93.1608C77.2358 92.4695 81.5681 91.3764 86.2026 89.815C90.5488 88.3507 96.6658 85.9825 102.472 82.2866C107.101 79.3395 118.502 71.2301 121.83 55.8494L58.3002 42.1037C59.5388 36.379 62.2804 32.5471 64.046 30.5597C65.7716 28.6174 67.2294 27.6685 67.5663 27.454C68.1242 27.0989 67.611 27.4888 65.4493 28.2171C63.5758 28.8483 61.5226 29.3824 59.8128 29.7701C58.9966 29.9552 58.344 30.0877 57.9383 30.1665C57.7374 30.2055 57.6028 30.2302 57.5454 30.2406C57.5169 30.2458 57.5081 30.2473 57.5204 30.2451C57.5266 30.2441 57.5381 30.2421 57.5551 30.2391C57.5636 30.2377 57.5734 30.236 57.5847 30.234C57.5903 30.2331 57.5963 30.2321 57.6027 30.231C57.6058 30.2304 57.6109 30.2296 57.6125 30.2293C57.6176 30.2285 57.6228 30.2276 63.0548 62.2704Z" fill="#EAF6FC"/>
</svg>
