<svg width="34" height="58" viewBox="0 0 34 58" fill="none" xmlns="http://www.w3.org/2000/svg">
<path d="M20.2278 57.6371L31.6835 44.4092L8.7722 44.4092L20.2278 57.6371Z" fill="black"/>
<path d="M24.0376 20.7417L27.5776 26.3998L27.1062 26.7702L23.9464 21.4838L24.0376 20.7417Z" fill="black"/>
<path d="M23.3495 20.3843L24.7693 20.6536L23.4561 21.4281L22.0419 21.024L23.3495 20.3843Z" fill="black"/>
<path d="M27.2327 18.5816L30.4953 23.939L27.2327 25.8246L23.9028 20.5682L27.2327 18.5816Z" fill="black"/>
<path d="M22.3205 21.2467L22.7245 21.5834L16.832 24.0751L17.2361 23.4354L22.3205 21.2467Z" fill="black"/>
<path d="M17.2951 22.3413L28.197 16.5718L26.6156 16.9429L15.7473 22.5775L17.2951 22.3413Z" fill="black"/>
<path d="M24.4291 20.6321L23.1283 21.3701L23.1283 19.8423L24.4291 19.0987L24.4291 20.6321Z" fill="black"/>
<path d="M2.83867 7.62903L11.2759 12.5348L10.2287 13.0648L1.89475 8.13279L2.83867 7.62903Z" fill="black" stroke="black"/>
<path d="M11.285 12.5258L17.5425 22.8492L16.6927 23.3206L10.2544 13.0607L11.285 12.5258Z" fill="black" stroke="black"/>
<path d="M22.9692 6.22927L29.3234 16.5673L28.4576 17.0719L21.8917 6.73434L22.9692 6.22927Z" fill="black" stroke="black"/>
<path d="M10.5415 13.5958L8.33418 13.4636L14.5126 23.325L16.6692 23.3462L10.5415 13.5958Z" fill="black"/>
<path d="M22.2462 7.35265L20.0389 7.22042L26.2977 17.0819L28.4543 17.1031L22.2462 7.35265Z" fill="black"/>
<path d="M19.9556 5.65637L21.8754 6.7732L22.4543 7.67288L20.0471 7.23855L19.9556 5.65637Z" fill="black"/>
<path d="M8.38266 11.925L10.2211 13.0871L10.7937 14.0292L8.44294 13.5267L8.38266 11.925Z" fill="black"/>
<path d="M8.36713 11.9418L8.4473 13.519L1.58026 9.63256L1.84625 8.13484L8.36713 11.9418Z" fill="black"/>
<path d="M14.4531 1.36035L22.9365 6.21488L21.892 6.75231L13.5116 1.87115L14.4531 1.36035Z" fill="black" stroke="black"/>
<path d="M19.9689 5.67883L20.0491 7.25611L13.1821 3.36962L13.4481 1.8719L19.9689 5.67883Z" fill="black"/>
<path d="M22.3667 21.1509L23.1558 21.3501V19.9034L22.3667 20.3018V21.1509Z" fill="black"/>
<path d="M22.5138 23.3409L24.8855 27.304L16.9668 32.2909L13.869 28.2337L22.5138 23.3409Z" fill="black"/>
<path d="M24.7233 22.1809L23.4225 22.9189L23.4225 21.3911L24.7233 20.6475L24.7233 22.1809Z" fill="black"/>
<path d="M22.0159 22.4773L23.4187 22.8843V21.4063L22.0159 20.9993V22.4773Z" fill="black"/>
<path d="M22.4887 21.3463L25.8895 26.5991L22.2193 28.6208L18.946 23.4003L22.4887 21.3463Z" fill="black"/>
<path d="M18.9364 23.3652L22.2195 28.6207L21.7818 28.9911L18.8452 24.1073L18.9364 23.3652Z" fill="black"/>
<path d="M22.2193 28.6207L22.2193 32.7609L21.6397 32.7609L21.7816 28.9911L22.2193 28.6207Z" fill="black"/>
<path d="M18.7076 32.3844L19.3166 32.9965L20.4614 32.8787L21.6471 32.7623L21.7243 32.1131L18.7076 32.3844Z" fill="black"/>
<path d="M30.4281 23.9727L30.5148 27.9796L22.2123 32.7609L22.2123 28.6157L30.4281 23.9727Z" fill="black"/>
<path d="M28.46 17.1451V16.4403L17.1938 22.3138L17.4974 22.8844L28.46 17.1451Z" fill="black"/>
<path d="M17.3706 23.3596L14.1378 24.4874L14.2471 25.0503L16.977 23.9952L17.3706 23.3596Z" fill="black"/>
<path d="M14.1746 24.414L13.4653 28.4929L14.0363 28.5922L14.5424 24.8539L14.1746 24.414Z" fill="black"/>
<path d="M16.9804 32.3106L16.1248 32.1941L14.1003 29.3401L13.4984 28.4524L13.9493 27.8711L16.9804 32.3106Z" fill="black"/>
<path d="M22.1138 21.7505L22.1137 23.5014L13.8643 28.2491L14.2887 25.0166L22.1138 21.7505Z" fill="black"/>
<path d="M19.4404 32.0201L22.0331 30.5386L21.6627 32.1211L18.7332 32.3905L19.4404 32.0201Z" fill="black"/>
</svg>
