<svg width="46" height="64" viewBox="0 0 46 64" fill="none" xmlns="http://www.w3.org/2000/svg">
<path d="M24.2278 5.78207e-07L35.6835 13.2278L12.7722 13.2278L24.2278 5.78207e-07Z" fill="black"/>
<path d="M30.3274 39.3018L36.0626 43.727L35.7224 44.2816L30.5142 40.0915L30.3274 39.3018Z" fill="black"/>
<path d="M29.4921 39.1974L31.0388 38.9365L29.9939 40.2196L28.4022 40.3412L29.4921 39.1974Z" fill="black"/>
<path d="M32.7657 35.8992L38.1053 40.1229L35.4949 43.2715L30.1248 39.176L32.7657 35.8992Z" fill="black"/>
<path d="M28.7699 40.463L29.3081 40.6535L24.2492 45.41L24.4194 44.6066L28.7699 40.463Z" fill="black"/>
<path d="M24.0671 43.4707L32.9897 33.4902L31.5199 34.4639L22.5807 44.2943L24.0671 43.4707Z" fill="black"/>
<path d="M30.6845 39.0428L29.6385 40.2841L29.0629 38.7291L30.1067 37.482L30.6845 39.0428Z" fill="black"/>
<path d="M14.2514 35.7446L24.5106 43.8945L23.8232 44.6945L13.4039 36.6773L14.2514 35.7446Z" fill="black" stroke="black"/>
<path d="M23.7712 24.9329L34.1344 33.0613L33.4433 33.9011L22.8648 25.853L23.7712 24.9329Z" fill="black" stroke="black"/>
<path d="M13.8977 37.1139L12.1942 38.4053L21.6058 45.5205L23.8089 44.7294L13.8977 37.1139Z" fill="black"/>
<path d="M23.459 26.3488L22.1658 28.0704L31.2489 34.7251L33.452 33.9341L23.459 26.3488Z" fill="black"/>
<path d="M6.81865 44.9071L6.68274 44.5183L9.9162 40.7529L13.4849 36.6104L13.7516 36.9313L6.81865 44.9071Z" fill="black" stroke="black"/>
<path d="M12.1186 38.7433L13.7277 36.9326L14.7518 37.7302L13.735 39.077L12.1186 38.7433Z" fill="black"/>
<path d="M12.1351 38.7254L13.8354 38.9427L7.90397 45.8318L6.81596 44.9601L12.1351 38.7254Z" fill="black"/>
<path d="M16.2835 34.0631L16.1476 33.6743L19.381 29.9089L22.9497 25.7664L23.2165 26.0873L16.2835 34.0631Z" fill="black" stroke="black"/>
<path d="M21.5835 27.8994L23.1925 26.0886L24.2166 26.8862L23.1998 28.233L21.5835 27.8994Z" fill="black"/>
<path d="M21.5999 27.8814L23.3002 28.0987L17.3688 34.9878L16.2808 34.1162L21.5999 27.8814Z" fill="black"/>
<path d="M28.7807 40.3479L29.6589 40.2533L29.1138 38.7809L28.4607 39.4837L28.7807 40.3479Z" fill="black"/>
<path d="M29.7557 42.5218L33.6631 45.662L27.482 53.7218L22.8001 50.7594L29.7557 42.5218Z" fill="black"/>
<path d="M31.5676 40.5085L30.5216 41.7498L29.9459 40.1948L30.9898 38.9477L31.5676 40.5085Z" fill="black"/>
<path d="M28.9235 41.8303L30.5047 41.716L29.9478 40.2116L28.3666 40.3259L28.9235 41.8303Z" fill="black"/>
<path d="M28.749 41.0537L29.4088 42.8358L22.8009 50.7768L22.0149 47.3266L28.749 41.0537Z" fill="black"/>
<path d="M28.9787 40.5009L34.4195 44.566L31.4456 48.0068L26.1467 43.9265L28.9787 40.5009Z" fill="black"/>
<path d="M26.1235 43.8945L31.4456 48.0068L31.1396 48.5487L26.3103 44.6842L26.1235 43.8945Z" fill="black"/>
<path d="M31.4456 48.0067L33.0056 52.2208L32.4157 52.4392L31.1396 48.5487L31.4456 48.0067Z" fill="black"/>
<path d="M29.2893 53.161L30.1398 53.5546L31.2607 53.0033L32.4236 52.438L32.2576 51.7482L29.2893 53.161Z" fill="black"/>
<path d="M38.0495 40.1826L39.6475 44.2284L32.9984 52.2236L31.4365 48.0043L38.0495 40.1826Z" fill="black"/>
<path d="M33.4736 33.9746L33.208 33.2572L23.9539 43.4808L24.4779 43.9471L33.4736 33.9746Z" fill="black"/>
<path d="M24.5277 44.4785L21.6622 46.8447L21.9855 47.3764L24.3666 45.2739L24.5277 44.4785Z" fill="black"/>
<path d="M21.672 46.7564L22.4871 51.1754L23.1057 51.0613L22.2122 47.0656L21.672 46.7564Z" fill="black"/>
<path d="M27.5035 53.7366L26.5887 53.9404L23.4527 51.7983L22.5055 51.1215L22.7454 50.36L27.5035 53.7366Z" fill="black"/>
<path d="M29.8978 52.5141L31.9785 50.0292L32.1978 51.7796L29.3176 53.1576L29.8978 52.5141Z" fill="black"/>
</svg>
