<svg width="34" height="26" viewBox="0 0 34 26" fill="none" xmlns="http://www.w3.org/2000/svg">
<path d="M20.8934 20.0054C21.0733 20.5276 21.6425 20.805 22.1646 20.6251L30.6737 17.6934C31.1959 17.5135 31.4733 16.9444 31.2934 16.4222C31.1135 15.9 30.5444 15.6226 30.0222 15.8025L22.4586 18.4085L19.8526 10.8448C19.6727 10.3227 19.1036 10.0452 18.5814 10.2251C18.0592 10.405 17.7818 10.9742 17.9617 11.4963L20.8934 20.0054ZM12.095 19.1702C8.70109 17.5156 6.61 15.9133 5.45003 14.4741C4.30985 13.0595 4.10097 11.8528 4.34066 10.8599C4.59126 9.82182 5.38314 8.80389 6.65744 7.91815C7.92243 7.0389 9.58099 6.35049 11.3813 5.95031C15.0442 5.13607 18.9164 5.5822 21.0857 7.51907C22.1364 8.45713 22.8459 9.78916 22.9399 11.6596C23.0354 13.5598 22.4947 16.0523 20.94 19.2415L22.7378 20.1179C24.3809 16.7473 25.0555 13.9103 24.9373 11.5592C24.8177 9.17817 23.8846 7.33684 22.4177 6.02717C19.552 3.46857 14.889 3.12176 10.9473 3.99796C8.94524 4.44299 7.03414 5.22065 5.51595 6.2759C4.00708 7.32467 2.80227 8.7097 2.3965 10.3906C1.97983 12.1167 2.45491 13.9451 3.89284 15.7292C5.31099 17.4887 7.69218 19.2488 11.2186 20.9679L12.095 19.1702Z" fill="black"/>
</svg>
