<svg width="34" height="26" viewBox="0 0 34 26" fill="none" xmlns="http://www.w3.org/2000/svg">
<path d="M13.6144 20.0054C13.4345 20.5276 12.8653 20.805 12.3432 20.6251L3.83408 17.6934C3.31192 17.5135 3.03446 16.9444 3.21437 16.4222C3.39428 15.9 3.96341 15.6226 4.48557 15.8025L12.0492 18.4085L14.6552 10.8448C14.8351 10.3227 15.4043 10.0452 15.9264 10.2251C16.4486 10.405 16.726 10.9742 16.5461 11.4963L13.6144 20.0054ZM22.4128 19.1702C25.8067 17.5156 27.8978 15.9133 29.0578 14.4741C30.198 13.0595 30.4068 11.8528 30.1672 10.8599C29.9166 9.82182 29.1247 8.80389 27.8504 7.91815C26.5854 7.0389 24.9268 6.35049 23.1266 5.95031C19.4636 5.13607 15.5915 5.5822 13.4221 7.51907C12.3714 8.45713 11.662 9.78916 11.568 11.6596C11.4725 13.5598 12.0131 16.0523 13.5678 19.2415L11.7701 20.1179C10.1269 16.7473 9.45232 13.9103 9.57048 11.5592C9.69014 9.17817 10.6232 7.33684 12.0901 6.02717C14.9558 3.46857 19.6189 3.12176 23.5605 3.99796C25.5626 4.44299 27.4737 5.22065 28.9919 6.2759C30.5007 7.32467 31.7055 8.7097 32.1113 10.3906C32.528 12.1167 32.0529 13.9451 30.615 15.7292C29.1968 17.4887 26.8156 19.2488 23.2892 20.9679L22.4128 19.1702Z" fill="black"/>
</svg>
